<?xml version="1.0" standalone="no"?>
<!DOCTYPE svg PUBLIC "-//W3C//DTD SVG 20010904//EN"
 "http://www.w3.org/TR/2001/REC-SVG-20010904/DTD/svg10.dtd">
<svg version="1.0" xmlns="http://www.w3.org/2000/svg"
 width="700.000000pt" height="700.000000pt" viewBox="0 0 700.000000 700.000000"
 preserveAspectRatio="xMidYMid meet">
<metadata>
Created by potrace 1.14, written by Peter Selinger 2001-2017
</metadata>
<g transform="translate(0.000000,700.000000) scale(0.100000,-0.100000)"
fill="#000000" stroke="none">
<path d="M2877 6994 c-1 -1 -33 -4 -72 -7 -155 -12 -265 -57 -354 -145 -113
-113 -168 -283 -138 -432 14 -74 15 -73 -28 -76 -91 -8 -195 -65 -248 -136
-52 -68 -98 -173 -113 -253 -3 -16 -10 -52 -14 -80 -10 -55 -6 -350 4 -376 6
-13 -6 -19 -65 -34 -220 -53 -361 -153 -435 -310 -45 -96 -61 -175 -58 -286 7
-259 141 -466 332 -514 91 -23 300 -41 540 -46 57 -2 106 -7 109 -12 6 -10 7
-107 18 -1027 4 -311 8 -656 9 -767 1 -111 0 -207 -3 -212 -3 -5 -55 -21 -116
-36 -188 -45 -364 -106 -522 -181 -40 -18 -75 -34 -77 -34 -8 0 -178 -96 -251
-143 -439 -278 -821 -700 -1159 -1282 -48 -82 -91 -157 -95 -165 -4 -8 -31
-59 -60 -112 -29 -54 -54 -108 -57 -120 -15 -69 5 -140 52 -183 l27 -25 3403
0 3403 0 34 33 c41 38 62 103 52 161 -6 44 -57 137 -204 376 -351 572 -716
989 -1107 1267 -280 199 -631 356 -982 439 l-73 18 6 510 c6 535 8 1117 5
1419 -1 98 0 181 3 183 4 4 68 8 327 19 136 6 188 8 465 20 83 3 165 8 184 11
112 15 180 141 134 245 -46 103 -357 545 -582 828 -209 262 -514 604 -634 708
l-37 32 27 17 c132 81 290 194 323 231 94 107 114 290 40 368 -34 36 -81 39
-210 11 -63 -13 -146 -28 -185 -32 -131 -15 -486 -8 -597 11 -13 2 -59 9 -103
14 -82 11 -200 28 -245 36 -14 2 -45 7 -70 10 -25 3 -56 7 -70 10 -14 3 -43 7
-65 10 -22 2 -58 7 -80 10 -96 14 -381 35 -388 29z m1286 -910 c57 -29 109
-74 237 -203 158 -160 425 -463 520 -591 14 -19 37 -48 51 -64 68 -81 297
-398 301 -417 3 -14 7 -14 -212 -23 -85 -3 -193 -8 -240 -11 -47 -3 -141 -7
-210 -10 -174 -8 -197 -11 -228 -31 -37 -24 -47 -35 -67 -74 -16 -31 -18 -59
-15 -220 3 -233 0 -1409 -5 -1715 -2 -126 -4 -263 -4 -304 l-1 -73 -57 6
c-152 17 -255 21 -598 21 -327 0 -613 -8 -685 -19 -14 -3 -61 -7 -105 -11 -44
-3 -94 -8 -110 -11 l-31 -5 -1 113 c-1 126 -11 942 -19 1608 -3 239 -9 451
-14 471 -25 94 -85 126 -244 129 -323 5 -570 20 -647 40 -28 8 -40 19 -59 56
-31 63 -35 171 -9 231 38 89 189 146 449 168 36 3 83 8 105 11 22 2 87 7 145
10 l105 6 40 -61 c61 -96 156 -133 260 -104 55 16 97 50 119 97 7 17 22 80 31
140 9 59 18 118 21 130 2 11 8 46 14 76 6 30 13 66 16 80 3 14 7 35 10 48 22
105 90 275 146 362 l36 56 68 -7 c84 -7 327 -4 409 5 100 12 215 34 310 61 50
15 95 27 102 29 7 1 16 5 19 9 10 9 10 9 47 -9z"/>
</g>
</svg>
