<?xml version="1.0" encoding="UTF-8" standalone="no"?>
<svg
   viewBox="0 0 820 820"
   version="1.1"
   id="svg50"
   sodipodi:docname="landing.svg"
   inkscape:version="1.1 (c4e8f9ed74, 2021-05-24)"
   xmlns:inkscape="http://www.inkscape.org/namespaces/inkscape"
   xmlns:sodipodi="http://sodipodi.sourceforge.net/DTD/sodipodi-0.dtd"
   xmlns="http://www.w3.org/2000/svg"
   xmlns:svg="http://www.w3.org/2000/svg">
  <sodipodi:namedview
     id="namedview52"
     pagecolor="#ffffff"
     bordercolor="#666666"
     borderopacity="1.0"
     inkscape:pageshadow="2"
     inkscape:pageopacity="0.0"
     inkscape:pagecheckerboard="0"
     showgrid="false"
     inkscape:zoom="0.94634146"
     inkscape:cx="410.52835"
     inkscape:cy="410"
     inkscape:window-width="1920"
     inkscape:window-height="1011"
     inkscape:window-x="0"
     inkscape:window-y="0"
     inkscape:window-maximized="1"
     inkscape:current-layer="svg50" />
  <defs
     id="defs4">
    <style
       id="style2">.cls-1{fill:#6366F1;}.cls-2{fill:none;stroke:#FFFFFF;stroke-linecap:round;stroke-linejoin:round;stroke-width:7px;}.cls-3{fill:#FFFFFF;}</style>
  </defs>
  <g
     id="CHARACTERS">
    <g
       id="Hello">
      <path
         id="BG"
         class="cls-1"
         d="M725.27,305.31a273.4,273.4,0,0,0-39.42-66.7c-16.07-20-47.42-45.27-73.19-48-25.44-2.67-60.82-.3-84.15,24.13a679.85,679.85,0,0,0-38.27-75.42C466.89,99.78,429.68,73.43,373.36,66c-26.61-3.5-85.9,6-117.54,25.37s-36.24,58.2-29.16,73.75c-18.84-2.65-38.34,4.28-52.82,17.15A60.93,60.93,0,0,0,155.07,213c-1.59,6.44-1.63,13.17-1.13,19.75s2.19,14.35-.11,20.87c-2,5.65-7.48,9.25-12.1,12.59A112.74,112.74,0,0,0,125.51,280c-9.21,9.78-26.7,32.7-31.87,45.05-11,26.12-13.21,45.55-16.77,73.56-3.91,30.73-4.52,59.89,1.7,90.52,5,24.56,15.8,47.53,30.48,67.79,1-.46,2-.9,3.11-1.3,5.77-2.2,11.34-4.39,19.91-3.87-7-16.83-13.91-31.36-10.81-50.29,2.88-17.59,11.78-37.73,34-38.73l2.92-.26c5.11-38.64,10.41-78.84,19.62-117.8q9.18-38.76,18.85-77.47c1.71-6.86,10.39-48.28,19.68-42.25,8.5,5.53-5.4,47.63-6.82,56.27,1.75-5.94,18-72.39,29.79-65.24,6.77,4.1,4.75,24,1.7,41.71,6.51-27.09,18.28-62.44,30.56-50.47,6.92,6.74-1.14,30.9-3,38.73-2.63,11-5.73,21.86-9.18,32.55,11.19-19.48,33.33-30.35,53.41-10,4.88,4.94,16.91,26.45,11.81,33.8-7.9,11.39-16.06-6.51-24-13.53-9.83-8.66-23.16,2.76-28,12.49-5.45,11-6.59,33.73-2.81,45.48,5.69,17.71,24.51,18.24,34.84,4.52,3.25-4.32,3.56-10.73,8.46-13,5.64-2.57,11.9-1.11,14.3,5.47,4.65,12.73-7.07,29.68-19.8,40.2s-43.5,13.3-58.79,2.9c-1.52,22.72-1.32,45.4-2.16,68l2.2-.19c13.17,1.78,21.23,14,18.68,30.45-2,12.94-4.63,30.23-11,42.59,4.9-5.38,14.23-7.94,19.06-2.93,11.74,12.17-5.83,46.28-10.89,58,.87-1.45,3.71-2.89,5-4.2,26.31,21.33.28,71.69-5.17,97,7.54-13.23,14.93-11.24,20.54-5.73,4.77,4.67,10.14,13.58,11.5,20,.35,1.63.73,3.36,1.12,5.12,6.27-12.06,14.91-24.94,24.38-33.62,12-11,28-19,43.38-4.66,3.62-13.34,13.83-29.73,17.62-34.84a103.42,103.42,0,0,1,23.5-23l.35.08c-.36-26.11-1.16-57.28-2.21-84.33a12.77,12.77,0,0,1-3.93-.52c-11.07-7-18-17.17-22.35-28.67-9.05-1-17.24-3.95-21.86-12.55C347.31,455.52,358,447,372,443.15c0-.47,0-1,0-1.43.05-12.6,1.94-26.11,10.3-36.08a31.67,31.67,0,0,1,20.86-11.47A19,19,0,0,1,410.44,377c7.2-5.8,17.21-7.32,26.18-7.73,22.27-1,44.19,7.21,66.47,4,4.34-.62,7.12,4.73,3.08,7.31q-6.66,4.26-13.69,7.83c17.8,4.28,35.25,10.66,51,15.22,13.68,3.95,25.55,8.39,45.6,17-13.7,7.34-74.44,26.15-74.44,26.15s4.19,41.05,5.84,56.85c1.64,15.62,6.49,61.38,9.11,86,20.48,4.52,46.93,15.22,68.67,27A626.3,626.3,0,0,1,658,654.64c2.46-3,4.87-6,7.22-9.18A413.85,413.85,0,0,0,740.31,475.1C750.91,418.42,747.49,358.88,725.27,305.31ZM547.5,282.18c-18.51,6-32.53,10.12-51.5,14.5-25.17,5.8-49.51,11.65-75,16-22.79,3.89-48.68,8.28-71.5,11-11.31,1.35-38,8-38,1,1.47-13.15,60-25,60-25s-8.73-33.57-11.49-46.34c-4.23-19.61-9.56-41.78-6-62.16,3.15-18,21.21-29.68,39.51-25.48,4.51,1,9.17,3.63,13.56,7h0c5.78-7.15,14.1-14,23.42-13.86,19.8.33,31.66,27.78,39.65,42.77,12.06,22.64,17.69,48.45,27.37,71,0,0,28.55-4.11,44.5-7,9-1.63,36.27-9.68,39.5-2.5S557.09,279.08,547.5,282.18Z" />
      <g
         id="Character">
        <path
           class="cls-2"
           d="M87.5,622.68c-1.74-15.85-4.13-33.8,3.5-48.5,4.68-9,11.17-14.82,21.16-18.61,5.77-2.2,11.34-4.39,19.91-3.87-7-16.83-13.91-31.36-10.81-50.29,2.88-17.59,11.78-37.73,34-38.73"
           id="path7" />
        <path
           class="cls-2"
           d="M248.75,454.55c13.17,1.78,21.23,14,18.68,30.45-2.27,14.69-5.35,35-13.78,47.32,2.49-8.25,15.75-14,21.85-7.66,11.74,12.17-5.83,46.28-10.89,58,.87-1.45,3.71-2.89,5-4.2,26.31,21.33.28,71.69-5.17,97,7.54-13.23,14.93-11.24,20.54-5.73,4.77,4.67,10.14,13.58,11.5,20,1.72,8.07,4.2,18.15,5,26.5.35,3.57-.8,11-2.57,14.35-2.55,4.76-8.07,3.28-10.44-.85-4-7,3-21.95,6-28.55,6.32-13.68,16.34-29.73,27.49-40,12-11,28-19,43.38-4.66,3.62-13.34,13.83-29.73,17.62-34.84a103.42,103.42,0,0,1,23.5-23C439,606.68,465,610,481,609.23a83.37,83.37,0,0,0,48.5-19.55c20.5,4.5,47,15.22,68.78,27.05s62.89,37.87,93.22,63.95"
           id="path9" />
        <path
           class="cls-2"
           d="M631.5,689.68c-20.54.23-39,1.05-59,6"
           id="path11" />
        <path
           class="cls-2"
           d="M599.5,682.68c3.8,8.64,4,36,4,36"
           id="path13" />
        <path
           class="cls-2"
           d="M609.5,679.68c6.47,7.38,6,19.35,6,29"
           id="path15" />
        <path
           class="cls-2"
           d="M483.5,656.68c-5.36,14-13.8,38-7.19,52,6,12.69,19.36,8.85,27.19,20.94,4.82,7.45,5.54,16.43,7,25.06"
           id="path17" />
        <path
           class="cls-2"
           d="M401.5,622.68c11.05,13.82,30.84,35.29,49,35.5,19,.21,25.42-17.45,37-30.1,6.6,10.3,15.48,26.33,30,19.62,12.91-5.94,21.14-27.81,21-41"
           id="path19" />
        <path
           class="cls-2"
           d="M406.5,598.68c-.12-37.42-1.14-75.16-3.15-112.85-15.93-.9-38,3.38-46.85-13.14-13.33-24.89,15.05-31.67,34.85-32.16,3.5-22.26,13.71-41.56,36.55-51,37.05-15.26,80.48,4,115.6,14.12,13.68,3.95,25.55,8.39,45.6,17-13.7,7.34-74.44,26.15-74.44,26.15s4.19,41.05,5.84,56.85l9,86"
           id="path21" />
        <line
           class="cls-2"
           x1="462.5"
           y1="427.68"
           x2="465.5"
           y2="437.68"
           id="line23" />
        <line
           class="cls-2"
           x1="479.5"
           y1="425.68"
           x2="482.5"
           y2="434.68"
           id="line25" />
        <path
           class="cls-2"
           d="M466.5,469.68c5.17,7.55,13.79,7.36,23,5"
           id="path27" />
        <path
           class="cls-2"
           d="M373.38,462.23c5.1.45,10.53,1.84,15.25,2.89"
           id="path29" />
        <path
           class="cls-2"
           d="M156.5,474.68c5.66-42.35,11.06-87,21.25-130.06q9.18-38.76,18.85-77.47c1.71-6.86,10.39-48.28,19.68-42.25,8.5,5.53-5.4,47.63-6.82,56.27,1.75-5.94,18-72.39,29.79-65.24,11.4,6.91-2.14,58.69-3.52,69.24,0-6.95,17.31-96,35.78-78,6.92,6.74-1.14,30.9-3,38.73a474.69,474.69,0,0,1-16,52.52c4.09-29.69,34-56.63,60.27-30,4.88,4.94,16.91,26.45,11.81,33.8-7.9,11.39-16.06-6.51-24-13.53-9.83-8.66-23.16,2.76-28,12.49-5.45,11-6.59,33.73-2.81,45.48,5.7,17.71,24.51,18.24,34.84,4.52,3.25-4.32,3.56-10.73,8.46-13,5.64-2.57,11.9-1.11,14.3,5.47,4.65,12.73-7.07,29.68-19.8,40.2s-43.5,13.3-58.79,2.9c-1.55,23.19-1.3,46.34-2.21,69.36-.32,8.19-.68,11.76-9.85,13.73-10.69,2.3-24.58,4.44-36.15,5.81C187.91,477.16,160.24,476.83,156.5,474.68Z"
           id="path31" />
        <path
           class="cls-2"
           d="M164.5,423.68c13,1.8,25-.2,38-1,16.32-1,28.77-5.19,45-8"
           id="path33" />
        <path
           class="cls-2"
           d="M424.5,192.68c-6.34-10.89-19.2-24.27-31-27-18.3-4.2-36.36,7.44-39.51,25.48-3.55,20.38,1.78,42.55,6,62.16,2.76,12.77,11.49,46.34,11.49,46.34s-58.52,11.85-60,25c0,7,26.69.35,38-1,22.82-2.72,48.71-7.11,71.5-11,25.49-4.35,49.83-10.2,75-16,19-4.38,33-8.52,51.5-14.5,9.59-3.1,37.24-11.83,34-19s-30.54.87-39.5,2.5c-16,2.89-44.5,7-44.5,7-9.68-22.58-15.31-48.39-27.37-71-8-15-19.85-42.44-39.65-42.77-9.32-.16-17.64,6.71-23.42,13.86"
           id="path35" />
        <path
           class="cls-3"
           d="M378.36,485.24c4.31,11.5,11.28,21.67,22.35,28.67a3.71,3.71,0,0,0,3.34.3c0-9.46-.19-18.92-.7-28.38C395.72,485.4,386.68,486.15,378.36,485.24Z"
           id="path37" />
        <path
           class="cls-3"
           d="M503.09,373.32c-22.28,3.19-44.2-5-66.47-4-9,.41-19,1.93-26.18,7.73a19,19,0,0,0-7.33,17.14,31.67,31.67,0,0,0-20.86,11.47c-8.36,10-10.25,23.48-10.3,36.08,0,.47,0,1,0,1.43a83.69,83.69,0,0,1,19-2.61c.75,3.1,1.58,6.19,2.38,9.24a109.38,109.38,0,0,0,9.12,24.47c1.51,2.8,5.3,2.37,6.9,0,9.41-13.85,19.71-28.69,23-45.45,1.25-6.41,1.42-13.48-1.66-19.44a16.66,16.66,0,0,0-2.46-3.56,161.76,161.76,0,0,0,77.93-25.17C510.21,378.05,507.43,372.7,503.09,373.32Z"
           id="path39" />
        <path
           class="cls-2"
           d="M466,251.46s13.91-1.7,20.51-2.56"
           id="path41" />
        <path
           class="cls-2"
           d="M370,288.18c34.5-8.48,70-16.66,105.5-21.5,4.89-.67,12.73-.5,17-3"
           id="path43" />
        <path
           class="cls-2"
           d="M366.5,274.68c9.31-5.15,26.35-9.7,36-12,11.54-2.73,29-4.9,45.05-8"
           id="path45" />
      </g>
    </g>
  </g>
</svg>
