<?xml version="1.0" encoding="UTF-8" standalone="no"?>
<svg
   id="ICONS"
   viewBox="0 0 250 250"
   version="1.1"
   sodipodi:docname="logo.svg"
   inkscape:version="1.1 (c4e8f9ed74, 2021-05-24)"
   xmlns:inkscape="http://www.inkscape.org/namespaces/inkscape"
   xmlns:sodipodi="http://sodipodi.sourceforge.net/DTD/sodipodi-0.dtd"
   xmlns="http://www.w3.org/2000/svg"
   xmlns:svg="http://www.w3.org/2000/svg">
  <sodipodi:namedview
     id="namedview18"
     pagecolor="#ffffff"
     bordercolor="#666666"
     borderopacity="1.0"
     inkscape:pageshadow="2"
     inkscape:pageopacity="0.0"
     inkscape:pagecheckerboard="0"
     showgrid="false"
     inkscape:zoom="3.104"
     inkscape:cx="124.83892"
     inkscape:cy="125"
     inkscape:window-width="1920"
     inkscape:window-height="1011"
     inkscape:window-x="0"
     inkscape:window-y="0"
     inkscape:window-maximized="1"
     inkscape:current-layer="ICONS" />
  <defs
     id="defs4">
    <style
       id="style2">.cls-1{fill:none;stroke:#000000;}.cls-1,.cls-3{stroke-linecap:round;stroke-linejoin:round;stroke-width:7px;}.cls-2{fill:#000000;}.cls-3{fill:#6366F1;stroke:#6366F1;}</style>
  </defs>
  <g
     id="user-color"
     transform="matrix(1.7284429,0,0,1.8174498,-90.747027,-104.92003)">
    <path
       class="cls-1"
       d="m 144.62,152 c 0,0 0.56,-31.37 0.15,-46.73 l 23.43,-1 A 172.24,172.24 0 0 0 146.75,78 c -2.66,-2.69 -5.55,-5.37 -9.16,-6.52 -3.61,-1.15 -9.77,-2.51 -13.34,-1.77 -6.55,1.37 -10.92,2.59 -15,7.85 -1.75,2.22 -2.55,9.77 -3.32,12.45 -6.5,0.59 -16.26,0.35 -20,4.12 -3.74,3.77 -1.74,11.61 2.26,12.41 4,0.8 16.17,0.93 16.17,0.93 q 0.27,21.95 0.55,43.9"
       id="path6" />
    <path
       class="cls-2"
       d="M 150.55,59.47 C 138.81,62.54 127,58.73 115,57.93 c -3.64,-0.24 -8.33,-0.09 -11.26,2.35 a 9.32,9.32 0 0 0 -3.08,10.47 c -7.06,0 -10,7.48 -8.57,17 6.8,0 9.85,1.49 13.27,7.29 1.79,3 7.44,2.85 8.1,-1.06 1.08,-6.34 1.68,-11.49 5.27,-16.5 14.44,1.37 23.87,-3 33,-9.33 3.8,-2.58 4.02,-10.04 -1.18,-8.68 z"
       id="path8" />
    <path
       class="cls-3"
       d="m 128.88,152 c 30.63,0 47.43,10.5 64.77,40.07 l -137.3,0.09 C 75.76,155.63 98.24,152 128.88,152 Z"
       id="path10" />
    <path
       class="cls-1"
       d="m 96,156.14 c -0.11,3.45 2.75,6.26 5.7,8.06 5.17,3.17 12.29,4.54 17.07,0.8 3.06,-2.4 4.43,-6.31 5.66,-10 2,4.69 5.12,9.06 9.43,11.81 4.31,2.75 10,3.68 14.63,1.6 4.63,-2.08 7.88,-7.47 6.71,-12.45"
       id="path12" />
    <path
       class="cls-1"
       d="m 125.52,173.66 -0.75,17"
       id="path14" />
  </g>
</svg>
