<?xml version="1.0" encoding="UTF-8" standalone="no"?>
<svg
   viewBox="0 0 1100 820"
   version="1.1"
   id="svg106"
   sodipodi:docname="team-white.svg"
   inkscape:version="1.1.1 (3bf5ae0d25, 2021-09-20, custom)"
   xmlns:inkscape="http://www.inkscape.org/namespaces/inkscape"
   xmlns:sodipodi="http://sodipodi.sourceforge.net/DTD/sodipodi-0.dtd"
   xmlns="http://www.w3.org/2000/svg"
   xmlns:svg="http://www.w3.org/2000/svg">
  <sodipodi:namedview
     id="namedview108"
     pagecolor="#ffffff"
     bordercolor="#666666"
     borderopacity="1.0"
     inkscape:pageshadow="2"
     inkscape:pageopacity="0.0"
     inkscape:pagecheckerboard="0"
     showgrid="false"
     inkscape:zoom="2.4774298"
     inkscape:cx="881.76062"
     inkscape:cy="291.43107"
     inkscape:window-width="1916"
     inkscape:window-height="1041"
     inkscape:window-x="0"
     inkscape:window-y="18"
     inkscape:window-maximized="1"
     inkscape:current-layer="svg106" />
  <defs
     id="defs4">
    <style
       id="style2">.cls-1{fill:#F2F4F6;}.cls-2,.cls-5,.cls-7{fill:none;stroke-linecap:round;stroke-linejoin:round;stroke-width:7px;}.cls-2{stroke:#FFF;}.cls-3{fill:#252631;}.cls-4{fill:#B6E0FE;}.cls-5{stroke:#B6E0FE;}.cls-6{fill:#FAB8D9;}.cls-7{stroke:#FAB8D9;}</style>
  </defs>
  <g
     id="CHARACTERS">
    <g
       id="Chat">
      <path
         id="BG"
         class="cls-1"
         d="M450.62,625.09c7.84-10.44,15.33-21.11,22.21-32.26,6.12-9.93,4.71-12.27,2.62-23.06-3.77-19.43-7.35-38.88-11-58.35a3.69,3.69,0,0,1-.64-.29,81.86,81.86,0,0,1-28.3-26.65c-9.26,0-16.37-3.4-15.39-14.51A20.65,20.65,0,0,1,424,459.75a93.38,93.38,0,0,1-2.73-12c-3.05-19.08-.78-50.74,17.1-62.16-1-13.48,10.8-25,23.86-28.47,19.29-5,40.88,4.2,59-5.82,3.35-1.85,7.74,2.66,5.14,5.79-2.79,3.34-5.62,6.74-8.56,10.07A610.49,610.49,0,0,1,621,372.34c-18.06,15.3-64.73,33.16-64.73,33.16s10.26,25.15,13.42,35.18c6.53,20.69,13.37,40.94,18.54,62.06,2.64,10.78,12.95,52,12.95,52,10.36,10.8,21,20.91,30.86,30.73,10.05,10,18,21.2,26.48,32.51q3-2.94,5.93-6.05c25.8-26.85,35.87-94.37,35.87-125.84s-8.11-64.46-17.08-83.65C673.67,382,662.14,361.72,647.58,345c-50.07-57.62-134.43-53.33-195.06-18.38-30.73,17.72-59.27,44.45-72.21,80.14-14.56,40.18-3.77,81.92,10.26,120.35C403.79,563.28,421.68,600.55,450.62,625.09Z" />
      <g
         id="Character">
        <path
           class="cls-2"
           d="M601.16,554.7s-10.31-41.18-12.95-52c-5.17-21.12-12-41.37-18.54-62.06-3.16-10-13.42-35.18-13.42-35.18s46.67-17.86,64.73-33.16a606.19,606.19,0,0,0-112.88-4.75c-22.33,1.19-45.47,7-58.34,26.32-7.89,11.83-6,23.42-3.05,37.11.88,4,1.79,8,2.7,12-13.94,5.05-28.17,13.91-29.32,27C418.36,489.63,442,485.24,458,480.21c1.85,8.22,3.62,16.48,5.21,24.82,4.11,21.61,8,43.19,12.23,64.74,2.09,10.79,3.5,13.13-2.62,23.06-11.83,19.19-25.49,37-39.62,54.54-8.32,10.33-36.11,42.34-37.77,49,0,0,281-.44,309-5.1-15.18-30.63-26.36-48.76-37.94-63.06-11.92-14.72-21.38-29.73-34.49-42.82-9.84-9.82-20.5-19.93-30.86-30.73-14.09,6.32-27.46,11.22-41.72,16-13.18,4.43-26.86,5.16-40.83,6.56-10.79,1.08-27.36,4.64-38.16,5"
           id="path7" />
        <line
           class="cls-2"
           x1="503.23"
           y1="420.39"
           x2="508.92"
           y2="425.74"
           id="line9" />
        <line
           class="cls-2"
           x1="522.8"
           y1="411.55"
           x2="528.49"
           y2="416.9"
           id="line11" />
        <path
           class="cls-2"
           d="M487,592.73s12.52,16.76,20,23.36c9,8,20.95,19.81,34,18.27,20.52-2.44,28.91-34.23,22.13-48.86,3.27,12.8,29,52.09,42.68,19.51,2.65-6.3,2.61-28.89,2.61-28.89"
           id="path13" />
        <path
           class="cls-2"
           d="M452.84,461.77c-4.86-.22-9.42-1.41-12.55,2.58"
           id="path15" />
        <path
           class="cls-3"
           d="M458,480.21c-7,2.19-15.4,4.25-22.53,4.27a81.86,81.86,0,0,0,28.3,26.65,3.69,3.69,0,0,0,.64.29l-1.2-6.39C461.63,496.69,459.86,488.43,458,480.21Z"
           id="path17" />
        <path
           class="cls-3"
           d="M521.28,351.3c-18.15,10-39.74.78-59,5.82-13.06,3.42-24.83,15-23.86,28.47-17.88,11.42-20.15,43.08-17.1,62.16a93.38,93.38,0,0,0,2.73,12c5.28-7.46,15.08-12.92,24.83-16.52,3.92,4.06,8,8,11.64,12.89,2.3,3.1,6.51.71,7-2.33,3.42-19.93-.71-43.34-11.87-60,10.41,3,22,1.62,32.07-2.68,16.09-6.87,27.77-20.9,38.7-34C529,354,524.63,349.45,521.28,351.3Z"
           id="path19" />
        <path
           class="cls-2"
           d="M525.18,474.59c14.26-8,30.76-4.53,45.67,1.23"
           id="path21" />
        <path
           class="cls-2"
           d="M578.68,469.09c-2.94-9.46-6-18.89-9-28.41-.12-.39-.26-.81-.4-1.25-2.66,2.61-4.89,5.74-7.72,8.22-8,7-18.25,10.62-27.89,14.49-7,2.8-15.26,2-9.6,10.82C536.47,492.39,564.29,484.46,578.68,469.09Z"
           id="path23" />
        <path
           class="cls-2"
           d="M572.44,627.89c8.63,18.13,12.63,44.3,12,64.5"
           id="path25" />
        <path
           class="cls-2"
           d="M626.94,669.89c15.31-.38,33.89,1.58,48,6"
           id="path27" />
        <path
           class="cls-2"
           d="M659.93,662.39a62.32,62.32,0,0,1,4.5,21"
           id="path29" />
        <path
           class="cls-2"
           d="M646.44,660.89c7.19,7.91,5,23.28,9,33"
           id="path31" />
        <path
           class="cls-2"
           d="M595.44,677.39h1.5"
           id="path33" />
        <path
           class="cls-2"
           d="M587.44,638.39h3"
           id="path35" />
        <path
           class="cls-3"
           d="M576,462.81c-1.71-3.56-3.46-7.09-5.19-10.63,0-.08-.09-.14-.14-.22,3.8-3.15-.13-9.9-4.16-6.8-12,9.24-26.28,14-40.55,18.51-4.09,1.29-3.64,8.26,1.06,7.85a197.1,197.1,0,0,1,19.88-1c7.4.11,13.8,1.69,20.86,3.6,4.11,1.11,9.4.27,10.14-4.83C578.19,466.94,576.92,464.81,576,462.81Z"
           id="path37" />
      </g>
      <g
         id="Coworker2">
        <path
           class="cls-4"
           d="M272.41,443.69c33.73-7,55.51-23.48,78.25-51.39s26.78-72.94,19.95-107.36a234,234,0,0,0-12.73-41.07c-.39-.91-1.07-2.26-2-3.94a144.29,144.29,0,0,0-102.54-73.06,117,117,0,0,0-11.67-1.65h-.29A457.48,457.48,0,0,0,173.83,173c-20,3.73-44.94,10.07-63,19.41C79,208.8,63.35,242.49,59,276.86v0c-.12,1-.23,1.95-.33,2.92-.08.74-.15,1.47-.22,2.21,0,.31-.05.62-.08.94l0,.36c-.14,1.73-.27,3.46-.36,5.2,0,.66-.06,1.32-.08,2,0,.94-.08,1.88-.1,2.82s-.06,2.08-.07,3.13c0,1.64,0,3.3,0,5,0,.48,0,1,0,1.44,0,1.29.06,2.58.1,3.87,0,.14,0,.27,0,.4l0,.89c.06,1.67.14,3.34.23,5l.06.93v0c.08,1.41.17,2.84.27,4.27,0,.51.07,1,.11,1.54q.15,2.13.33,4.26c0,.15,0,.3,0,.45s0,.38,0,.57c.15,1.74.31,3.49.47,5.25.06.53.11,1.07.16,1.6.13,1.32.26,2.65.4,4,0,.55.11,1.1.17,1.66.17,1.65.35,3.31.53,5,0,.14,0,.27,0,.4l.24,2.07.09.77c0,.37.08.74.13,1.1s.07.64.11,1c.09.66.17,1.3.26,1.95s.12,1,.19,1.5c0,.14,0,.28,0,.41a.69.69,0,0,1,0,.13c.13.94.27,1.86.4,2.78l.09.63c.06.37.11.74.17,1.1.14.92.29,1.82.43,2.71.05.29.09.57.14.85.12.72.25,1.42.38,2.13l.18,1c.07.42.15.83.23,1.24l.3,1.55c0,.2.07.4.11.6.09.41.17.83.25,1.23.11.57.23,1.12.35,1.68.08.38.16.76.25,1.14s.2.94.31,1.41.27,1.16.4,1.74.23,1,.34,1.45c.21.85.42,1.7.64,2.55.14.55.28,1.09.43,1.63s.23.9.36,1.34.29,1.1.45,1.65c.2.72.41,1.45.62,2.17,0,.09,0,.18.08.26,8.37-11.42,16.72-23.49,20.38-29.25,14-22,28.8-45.38,38.69-69.15-18.86,17.75-29-5.47-22.09-23.32,6.14-15.79,28.92-34.22,39.82-13.11-2.05-27,22.3-55.06,50.2-55,21.85.07,34.38,8.94,49,24.85,9.33,10.14,17.39,21.66,25.08,33.52l.9-.32c23.13-22.53,38.94,22.24,25,37l-1.78.94,1.31,1.92c9.06,13.06,23.54,40.79,23.54,40.79s-29.08-8.4-51.51-13.45a14.16,14.16,0,0,1,3,4.74q1.21,2.9,2.41,5.8a13.72,13.72,0,0,1,2.1,5.09c.71,1.74,1.42,3.49,2.14,5.23,1.36,3.28-1.89,5.27-4.68,4.67a2.48,2.48,0,0,1-.19.26c-1.81,2.09-4.93,1.15-6.29-.81a21.09,21.09,0,0,0-7.53-6.69,37,37,0,0,1-.31,10.95,4,4,0,0,1-4.92,2.79,30.53,30.53,0,0,1-10.7-6.33l-.58,2.1s-13,42.37-13.94,63.21l-.69.82a98.16,98.16,0,0,0,11.75-3.16s-.09,19-1.84,31.82a66.8,66.8,0,0,1-1.89,8.94l.85-.15c10.49-1.68,23.21-3.6,36.41-5.78Z"
           id="path40" />
        <path
           class="cls-5"
           d="M236,449.47c10.49-1.68,23.31-3.05,36.41-5.78,33.73-7,55.51-23.48,78.25-51.39s26.78-72.94,19.95-107.36a234,234,0,0,0-12.73-41.07c-.39-.91-1.07-2.26-2-3.94a144.29,144.29,0,0,0-102.54-73.06,100.09,100.09,0,0,0-12-1.65A457.48,457.48,0,0,0,173.83,173c-20,3.73-44.94,10.07-63,19.41C79,208.8,63.35,242.49,59,276.86,56.42,297.38,58.14,319,60.76,343s6.81,40.47,14.15,60c4.71,12.56,9.8,21.92,17,33.5C94.72,441,79.82,505,75.42,512.88c13.76-18.51,56-53.28,56-53.28a125.44,125.44,0,0,0,29.54.89c15.71-1.78,22.25-2.35,52-7.05"
           id="path42" />
        <path
           class="cls-2"
           d="M68.11,382.49c8.88-9,14.12-16.11,21-27,14-22,28.8-45.38,38.69-69.15-18.86,17.75-29-5.47-22.09-23.32,6.14-15.79,28.92-34.22,39.82-13.11-2.05-27,22.3-55.06,50.2-55,21.85.07,34.38,8.94,49,24.85,19.71,21.42,33.81,49,50.51,73.06,9.06,13.06,23.54,40.79,23.54,40.79S271.1,319.85,250.76,317s-38.35-5-53.68-5.14"
           id="path44" />
        <path
           class="cls-2"
           d="M120.76,263a51.06,51.06,0,0,1,8,4"
           id="path46" />
        <path
           class="cls-2"
           d="M187.91,266c1.68-12.58,10.29-28.13,23.83-31,11.7-2.5,24.21,6,28.56,16.52,9.36,22.69-11,56.36-37.54,46.5C191.62,293.85,186.32,276.15,187.91,266Z"
           id="path48" />
        <line
           class="cls-2"
           x1="218.76"
           y1="264.99"
           x2="217.76"
           y2="270.99"
           id="line50" />
        <path
           class="cls-2"
           d="M270.76,253c23.13-22.53,38.94,22.24,25,37"
           id="path52" />
        <line
           class="cls-2"
           x1="242.17"
           y1="258.17"
           x2="285.15"
           y2="265.99"
           id="line54" />
        <line
           class="cls-2"
           x1="163.57"
           y1="243.87"
           x2="193.76"
           y2="249.36"
           id="line56" />
        <path
           class="cls-2"
           d="M197.08,311.85c-9.45,7.64-21.6,24-12.83,30.15,9.28,6.48,27.91-10.88,31.56-18.71-.1,5.93-2.06,16.89,3.93,20.75,8.1,5.22,13.88-6.9,15-13.85,2.41,11.42,10.39,25.09,23.8,22.43,1.78-5.17,1.6-10.93-1.9-15.25,3,6,13.56,15,20,9.05,5.8-5.38-4.66-20.13-5.89-24.43"
           id="path58" />
        <path
           class="cls-2"
           d="M176.46,413.58c5.55.05,15.3,3,20.57,2.79-.59,7-1.73,16.88-5.21,23.37-5-2.33-14.67-3-20-3.14,1.85-4.31,3.76-9.46,4-14.21.37-8.16.08-7.93.08-7.93S153.74,398,145.18,392.3c-8.22,14.25-11,38.37-12.25,53.61,12.58-1.71,25.26-7.39,37.72-9.72"
           id="path60" />
        <path
           class="cls-2"
           d="M87.56,357.93c25.17,13.23,55.69,26.17,83.2,32.09,10.56,2.27,32.44,7.27,58.05,7.27"
           id="path62" />
        <path
           class="cls-2"
           d="M241.76,348s-13,42.37-13.94,63.21"
           id="path64" />
        <path
           class="cls-2"
           d="M199.12,419.06c12.73-5.19,27-5.76,39.75-10.2,0,0-.08,19-1.83,31.82a78.8,78.8,0,0,1-7.7,23.79l-34.82-25.3"
           id="path66" />
        <path
           class="cls-2"
           d="M70.74,391.15c21.16,8.52,43,18.27,63.89,25.07"
           id="path68" />
        <path
           class="cls-3"
           d="M277,341.05c-.72-1.74-1.43-3.49-2.14-5.23a13.72,13.72,0,0,0-2.1-5.09q-1.2-2.91-2.41-5.8c-1.63-3.84-3.64-6.33-7.85-7.16-11.47-2.27-23.74-2.53-35.38-3.64-6-.57-11.9-1.14-17.86-1.65-4.83-.42-9.19-.54-13.34,2.31-7.56,5.21-11.26,14.91-12.18,23.67-.25,2.43,2.79,4.76,5.07,3.86A61,61,0,0,0,213,325.18c.36,0,.7-.09,1.06-.11a12.08,12.08,0,0,1,3.8.22,3.27,3.27,0,0,0,.83.16,3.19,3.19,0,0,0-.88,1.19,18.68,18.68,0,0,0,.51,17,4,4,0,0,0,6.28.81c2.89-3.34,6.73-8.1,9-13A29.94,29.94,0,0,0,253,352.22a4,4,0,0,0,4.92-2.79,37,37,0,0,0,.31-10.95,21.09,21.09,0,0,1,7.53,6.69c1.36,2,4.48,2.9,6.29.81a2.48,2.48,0,0,0,.19-.26C275.07,346.32,278.32,344.33,277,341.05Z"
           id="path70" />
      </g>
      <g
         id="Coworker1">
        <path
           class="cls-6"
           d="M975,208a53.08,53.08,0,0,1-9.73,9.16C954,225,942.58,231.26,931.43,232l-5.55-3.3c.89.81,1.77,1.66,2.61,2.57a142.64,142.64,0,0,1,28.92,49.19c9.9-4.22,22.64-6.81,31.85-5.42,8.1,1.23,15.5,8.22,14.5,17.5-1,9-10.66,14-19,16.25-4.34,1.16-11.44,3.42-17.53,5.42,2.61,13.83,5,27.75,8.17,41.5S989,415.79,989,415.79s20.64,9.56,36.73,16.79a137.27,137.27,0,0,0,6.07-13.7c11-29.2,11.41-50.17,9.83-80.89-1-19.63-5.75-45.75-13.13-64-8.53-21.15-22.35-39.3-38.55-54.19A125.71,125.71,0,0,0,975,208Z"
           id="path73" />
        <path
           class="cls-6"
           d="M858.06,483.94A165.81,165.81,0,0,0,873.31,460s-13.08-39-20.5-57.31c-5.54-13.67-20.08-49.81-20.08-49.81-18,7.46-52.77,29-52.77,29s11.23-52.46,18.58-73.9c9.25-27,20-52.64,42.27-71.57,17.7-15,48-24.46,70.85-16.25h0c-4.27-9.57-3.26-22.74-.26-35.26l-.19-.07A211.87,211.87,0,0,0,881.07,183c-21.86.17-70.16,12-103.2,37.28s-51.41,71.26-55.38,109.55c-4.09,39.4,7.15,81,28.35,114.07,8.77,13.7,19.52,27.26,45.74,45.45,12.72,8.83,29,14.63,45.84,18.08C849.56,496.45,856,486.74,858.06,483.94Z"
           id="path75" />
        <line
           class="cls-2"
           x1="890.76"
           y1="309.99"
           x2="892.76"
           y2="319.99"
           id="line77" />
        <line
           class="cls-2"
           x1="869.76"
           y1="317.99"
           x2="871.76"
           y2="327.99"
           id="line79" />
        <path
           class="cls-2"
           d="M893.56,355.36c4.39-2.08,5.8,1.23,5.25,5.33-.55-4.64,4.33-10.12,9.78-8.52s7.82,23.12.59,30.32c-8.18,8.15-16.57,3-20.42-7.67S889.17,357.44,893.56,355.36Z"
           id="path81" />
        <path
           class="cls-2"
           d="M877.76,376c16.87,2.64,40.5-11.65,43.82-26.66"
           id="path83" />
        <path
           class="cls-2"
           d="M831.76,246c29.78,20,87,43.26,119,21"
           id="path85" />
        <path
           class="cls-7"
           d="M911.19,184.83A212,212,0,0,0,881.07,183c-21.86.17-70.16,12-103.2,37.28s-51.41,71.26-55.38,109.55c-4.09,39.4,7.15,81,28.35,114.07,8.77,13.7,19.52,27.26,45.74,45.45s67.67,23.58,97.18,21.82c23.86-1.42,52.57-6.61,73.61-16.47l.32.25S987.1,513.69,997.3,522c11.51,9.37,24.94,18.79,38.56,24.6-6.15-15.66-16.44-31.46-24.72-46.23-4.11-7.34-9.66-19-13.77-28,14.86-15.34,27.37-34.89,34.39-53.52,11-29.2,11.41-50.17,9.83-80.89-1-19.63-5.75-45.75-13.13-64-8.53-21.15-22.35-39.3-38.55-54.19A125.71,125.71,0,0,0,975,208"
           id="path87" />
        <path
           class="cls-2"
           d="M1025.79,432.38c-10.17-4-36.83-16.59-36.83-16.59s-10.36-46.36-13.56-60.13-5.56-27.67-8.17-41.5c6.09-2,13.19-4.26,17.53-5.42,8.34-2.22,18-7.22,19-16.25,1-9.28-6.4-16.27-14.5-17.5-9.21-1.39-22,1.2-31.85,5.42a142.64,142.64,0,0,0-28.92-49.19c-22.1-24-65.1-14-87.68,5.2-22.3,18.93-33,44.61-42.27,71.57-7.35,21.44-18.58,73.9-18.58,73.9s34.73-21.56,52.77-29c0,0,14.54,36.14,20.08,49.81C860.23,421,873.31,460,873.31,460a165.81,165.81,0,0,1-15.25,23.95c-5.51,7.38-17.35,23.13-17.35,23.13"
           id="path89" />
        <path
           class="cls-3"
           d="M972.46,124.54c-21.31-4.34-41.55,6.41-52.83,28.06-7.82,15-20.22,48.73-11.19,69a3.49,3.49,0,0,0,6.2.36l13.78,8.21a3.54,3.54,0,0,0-.49,2,3.49,3.49,0,0,0,3.49,3.28h.22c13-.81,25.84-8.68,35.6-15.45,11.92-8.27,26.8-29.92,30-50.49C999.72,153.94,990.38,128.19,972.46,124.54Z"
           id="path91" />
        <path
           class="cls-2"
           d="M944.06,475.16c22-12.73,39.17-38.86,49-59.91"
           id="path93" />
        <path
           class="cls-2"
           d="M869.76,463c16.08,10.27,38,20.61,57.8,18.14"
           id="path95" />
        <path
           class="cls-2"
           d="M938.23,470c-10.16-2.59-14.75,11.51-6,15,11,4.44,17.57-12.47,5-15Z"
           id="path97" />
        <path
           class="cls-2"
           d="M984,290.48a12.08,12.08,0,0,0-11.48,5"
           id="path99" />
        <path
           class="cls-3"
           d="M949.85,262.61c-8.08-20.71-26-37.05-47.84-42.08-22.57-5.19-46.88,2.3-63.12,18.65-3.06.43-4.92,5.29-1.52,7.55a164.85,164.85,0,0,0,58,24.38,154.78,154.78,0,0,0,30,3.38c8.52.07,17.47-1.38,23.44-8A4,4,0,0,0,949.85,262.61Z"
           id="path101" />
      </g>
    </g>
  </g>
  <path
     style="fill:#a0a0a0;stroke:none;stroke-width:0.947977"
     d="m 422.28097,449.23878 c -1.95403,-10.85246 -1.45847,-29.68959 1.01824,-38.70512 2.25496,-8.20829 6.59822,-16.21509 11.40118,-21.01804 2.53822,-2.53823 4.2129,-5.07795 4.2129,-6.38904 0,-7.7871 6.89083,-17.44368 15.81138,-22.15753 8.42658,-4.45283 14.60062,-5.35239 31.77067,-4.62898 16.40807,0.69131 24.82932,-0.20367 32.34706,-3.43772 l 4.70951,-2.02597 1.75984,2.1733 c 1.73918,2.1478 1.72418,2.21939 -1.27806,6.09939 -1.67084,2.15934 -7.74894,8.62988 -13.50689,14.37899 -8.38374,8.37085 -12.0011,11.24659 -18.16092,14.43758 -11.7766,6.10067 -24.0098,8.26473 -33.8315,5.98482 -1.9824,-0.46017 -3.45848,-0.55664 -3.2802,-0.21438 5.13877,9.86518 8.66258,18.21508 10.13843,24.02363 3.80772,14.98619 3.71252,34.09469 -0.1893,37.99652 l -1.98028,1.98027 -6.704,-7.29808 c -3.6872,-4.01395 -7.39322,-7.28935 -8.23559,-7.27866 -2.93098,0.0372 -14.95527,6.74726 -19.64215,10.96117 l -4.71757,4.2415 z"
     id="path147" />
  <path
     style="fill:#a0a0a0;stroke:none;stroke-width:0.947977"
     d="m 456.92486,505.88246 c -5.89611,-4.34433 -19.90752,-18.457 -19.90752,-20.05139 0,-0.41964 2.2396,-1.06926 4.97688,-1.4436 2.73728,-0.37434 7.27718,-1.27794 10.08866,-2.008 2.81148,-0.73006 5.26338,-1.17579 5.44866,-0.99051 0.57221,0.5722 6.10852,27.43849 5.82352,28.26003 -0.14759,0.42548 -3.04119,-1.26946 -6.4302,-3.76653 z"
     id="path186" />
  <path
     style="fill:#6b7280;stroke:none;stroke-width:0.947977;fill-opacity:1"
     d="m 914.79769,273.44377 c -11.83287,-1.00722 -25.25219,-3.86481 -37.6833,-8.02451 -18.02609,-6.03191 -40.99878,-18.3793 -40.99878,-22.03607 0,-2.61881 12.65939,-12.20259 22.27745,-16.86513 9.53733,-4.6234 19.81123,-7.06993 29.58432,-7.04496 5.86159,0.015 16.36886,1.71713 20.35996,3.29824 1.43077,0.56682 1.39666,0.10543 -0.32684,-4.42184 -5.03385,-13.22284 -0.71783,-38.24582 10.73649,-62.24703 3.90928,-8.19144 5.86818,-10.99905 11.97498,-17.16327 8.42462,-8.50382 15.98789,-12.63915 26.0587,-14.24797 11.92775,-1.90547 21.71402,1.05389 28.75888,8.69667 6.42364,6.96881 11.68215,20.74432 11.71812,30.69745 0.0488,13.5199 -11.15911,36.8737 -23.81178,49.61611 -9.13771,9.20251 -28.40008,19.5622 -38.37405,20.63832 -4.95158,0.53424 -6.44515,-0.26069 -6.50343,-3.4614 -0.0138,-0.75677 -3.14356,-3.21584 -6.95507,-5.46457 -6.0903,-3.5932 -7.14775,-3.9361 -8.72702,-2.82995 -1.66315,1.16492 -1.42941,1.43992 3.13811,3.69195 12.55394,6.18973 24.10373,17.75354 30.42821,30.46515 3.7891,7.61575 3.5919,8.72055 -2.27099,12.72349 -5.76253,3.9344 -15.08293,5.19662 -29.38396,3.97932 z"
     id="path225" />
  <path
     style="fill:#6b7280;fill-opacity:1;stroke-width:0.947977"
     d="m 422.9332,449.90672 c -1.49125,-9.79845 -1.34204,-28.57778 0.28819,-36.26941 1.75863,-8.29751 5.34045,-15.69727 11.02934,-22.78576 2.72556,-3.39611 4.88134,-7.1708 5.2467,-9.18676 1.57814,-8.7078 8.3395,-16.60329 18.23202,-21.29019 l 6.30523,-2.98732 23.69942,-0.56354 c 21.81508,-0.51873 24.17134,-0.74134 29.63466,-2.7997 5.51427,-2.07755 6.04611,-2.12527 7.49855,-0.67283 1.45243,1.45243 1.36995,1.81909 -1.16298,5.16963 -5.28054,6.98506 -22.76507,23.63439 -28.39551,27.03911 -3.13333,1.89473 -9.10044,4.58747 -13.26025,5.98387 -6.69064,2.24597 -8.68573,2.49736 -17.29148,2.1788 -5.3505,-0.19806 -9.72819,-0.0865 -9.72819,0.24789 0,0.3344 1.88678,4.61108 4.19285,9.50372 5.89195,12.5006 7.26166,18.27149 7.84887,33.06912 0.41009,10.33398 0.22168,13.48205 -0.97867,16.3526 -0.8176,1.95521 -1.83969,3.55492 -2.27131,3.55492 -0.43163,0 -3.74803,-2.98613 -7.36977,-6.63584 -4.36665,-4.40037 -7.32272,-6.63584 -8.77488,-6.63584 -3.06795,0 -10.34572,3.86151 -17.53864,9.30581 l -6.10814,4.62323 z"
     id="path1176" />
  <path
     style="fill:#4b5563;fill-opacity:1;stroke-width:0.947977"
     d="m 249.79191,350.13264 c -5.52492,-2.85137 -10.69895,-8.14089 -13.67959,-13.98494 l -2.61339,-5.12397 -3.56355,5.36872 c -1.95995,2.95279 -4.66462,6.23482 -6.01037,7.29338 -2.39887,1.88695 -2.48191,1.88958 -4.23749,0.13399 -3.37186,-3.37185 -3.88562,-10.93921 -1.18668,-17.47878 0.56873,-1.37804 0.16829,-1.65896 -2.36477,-1.65896 -2.33007,0 -4.25574,1.1025 -8.16309,4.67359 -5.78424,5.28648 -14.65389,10.94957 -18.7621,11.97922 -3.98272,0.9982 -5.29472,-1.16151 -4.22028,-6.94705 2.58888,-13.94029 12.46956,-23.09391 23.26828,-21.55609 1.98768,0.28306 13.83131,1.37596 26.31919,2.42867 25.26171,2.12954 29.17134,2.77832 31.98201,5.30724 1.95063,1.75508 4.99327,7.8978 8.51413,17.18894 2.22972,5.88399 1.61547,7.23672 -3.7425,8.24188 -3.11806,0.58495 -3.78188,0.3451 -5.89108,-2.12857 -1.30738,-1.5333 -3.55017,-3.54075 -4.98398,-4.46101 l -2.60694,-1.6732 v 5.72918 c 0,3.94437 -0.46408,6.19325 -1.48968,7.21885 -1.84796,1.84796 -1.93355,1.84078 -6.56812,-0.55109 z"
     id="path1276" />
  <path
     style="fill:#4b5563;fill-opacity:1;stroke-width:0.947977"
     d="m 423.24927,448.47942 c -0.36198,-3.86291 -0.47226,-13.56782 -0.24506,-21.56647 0.49187,-17.31658 1.58314,-20.85757 10.57067,-34.30009 3.23196,-4.834 6.44129,-10.6749 7.13185,-12.97978 0.69056,-2.30488 2.48218,-5.97352 3.98138,-8.15252 3.08009,-4.47676 12.57595,-11.22933 17.78019,-12.64361 1.90428,-0.5175 14.12708,-1.3237 27.16176,-1.79155 18.2133,-0.65374 24.54914,-1.20638 27.3701,-2.38733 6.44902,-2.69979 9.62581,-1.516 6.9384,2.5855 -5.10785,7.79557 -24.85619,25.94209 -32.38263,29.75602 -9.40383,4.76529 -14.3853,5.93683 -25.24376,5.93683 -6.07456,0 -10.4714,0.40128 -10.83452,0.98882 -0.33612,0.54385 1.3563,5.39688 3.76094,10.7845 5.58747,12.5188 7.12907,19.95835 7.14957,34.50287 0.0142,10.09302 -0.57796,14.00927 -2.44594,16.17533 -0.17029,0.19747 -3.36386,-2.46871 -7.09682,-5.92486 -9.25789,-8.57138 -10.6939,-8.48969 -25.10765,1.42845 -3.68586,2.53625 -6.95553,4.61136 -7.26594,4.61136 -0.31041,0 -0.86055,-3.16056 -1.22254,-7.02347 z"
     id="path1414" />
  <path
     style="fill:#4b5563;fill-opacity:1;stroke-width:0.947977"
     d="m 906.76589,272.0425 c -12.03883,-1.95053 -23.24221,-4.85196 -33.67918,-8.72216 -15.70094,-5.82216 -36.02313,-16.87376 -36.02313,-19.59007 0,-1.4851 5.97935,-7.13042 11.37573,-10.74023 16.96391,-11.3477 35.23233,-15.1475 54.00582,-11.23312 3.85581,0.80396 7.1506,1.32172 7.32174,1.15058 0.17115,-0.17115 -0.36372,-2.19073 -1.18858,-4.48795 -5.05614,-14.08112 -0.17038,-40.82543 11.64847,-63.76305 10.03805,-19.4815 27.79129,-31.06937 45.63008,-29.7836 12.22975,0.88148 21.01385,7.88813 26.8477,21.41508 2.92424,6.78043 3.14166,8.00555 3.14335,17.71202 0.002,9.89384 -0.17868,10.85919 -3.52369,18.85428 -9.92062,23.71192 -25.32597,39.32589 -47.38759,48.02935 -3.80242,1.50008 -8.73705,2.7421 -10.96585,2.76004 -3.41217,0.0275 -4.18802,-0.32417 -4.91106,-2.22589 -1.36233,-3.58321 -13.0231,-10.74344 -15.77589,-9.6871 -2.73313,1.04881 -1.09103,3.04843 5.52817,6.73175 11.5161,6.40825 23.69585,20.02168 28.69738,32.07532 l 1.50871,3.63602 -3.21458,3.03174 c -1.76802,1.66747 -4.88178,3.5885 -6.91944,4.26897 -5.57647,1.86224 -22.30419,2.15808 -32.11816,0.56802 z"
     id="path1453" />
  <path
     style="fill:#4b5563;fill-opacity:1;stroke-width:0.947977"
     d="m 456.34438,504.44322 c -6.40365,-4.82033 -18.89607,-17.45608 -18.0724,-18.27975 1.04235,-1.04235 18.05798,-4.14334 18.76143,-3.41915 0.90283,0.92945 5.91876,24.87384 5.33328,25.45932 -0.24252,0.24252 -2.95256,-1.44967 -6.02231,-3.76042 z"
     id="path1492" />
  <path
     style="fill:#374151;stroke-width:0.947977;fill-opacity:1"
     d="m 424.31443,453.03808 c -0.31281,-0.81518 -0.56875,-9.46283 -0.56875,-19.217 0,-21.35736 0.9534,-25.92821 7.63804,-36.61875 2.60813,-4.1711 6.87554,-11.9306 9.48314,-17.24335 3.86497,-7.8745 5.61987,-10.35922 9.49653,-13.44586 9.06904,-7.22088 10.37716,-7.55402 34.07781,-8.67869 11.71747,-0.55603 24.07732,-1.46085 27.46634,-2.01071 12.79389,-2.07578 12.3237,-2.05728 12.3237,-0.48488 0,2.03561 -14.85799,17.46979 -23.60966,24.52524 -12.12482,9.77482 -22.13652,12.99298 -40.61578,13.05551 -3.5094,0.0119 -4.97688,0.3899 -4.97688,1.28204 0,0.69585 1.72955,5.49499 3.84344,10.66474 5.94188,14.53153 7.27913,22.81183 6.72328,41.63076 -0.26605,9.00736 -0.82584,9.1674 -8.74624,2.5004 -8.97481,-7.55455 -11.06224,-7.67143 -21.01152,-1.17646 -10.32677,6.74138 -10.84795,6.97733 -11.52345,5.21701 z"
     id="path919" />
  <path
     style="fill:#374151;fill-opacity:1;stroke-width:0.947977"
     d=""
     id="path995" />
  <path
     style="fill:#374151;fill-opacity:1;stroke-width:0.947977"
     d="m 456.92488,504.16238 c -4.37094,-3.30694 -16.01541,-14.58193 -17.11301,-16.57 -0.75032,-1.35905 0.26327,-1.77075 7.74422,-3.14556 4.73414,-0.87002 8.82869,-1.36069 9.099,-1.09038 0.52551,0.52551 4.94626,20.16651 4.98597,22.15225 0.035,1.75061 -1.02148,1.44902 -4.71618,-1.34631 z"
     id="path1034" />
  <path
     style="fill:#374151;fill-opacity:1;stroke-width:0.947977"
     d="m 903.896,271.16112 c -16.43689,-3.16482 -29.9721,-7.4501 -44.07257,-13.9535 -9.98327,-4.60447 -21.81183,-11.89976 -21.81183,-13.4525 0,-2.96858 12.31276,-12.26533 22.1546,-16.72783 12.93323,-5.86421 28.50661,-7.63018 42.58744,-4.82927 3.5428,0.70471 6.64597,1.07679 6.89592,0.82684 0.24996,-0.24995 -0.19581,-2.95104 -0.99059,-6.00241 -5.86067,-22.50065 7.40933,-63.85406 25.63963,-79.90102 9.79256,-8.61974 19.02198,-11.96933 31.2166,-11.32928 6.23457,0.32723 8.60909,0.9061 12.09373,2.94823 5.57647,3.26803 10.47721,9.0274 14.27334,16.77408 2.9234,5.96573 3.01948,6.55408 3.01858,18.48555 -9.1e-4,12.03746 -0.0768,12.48883 -3.26625,19.43352 -9.1318,19.88334 -20.32231,32.83819 -36.32289,42.0497 -6.85292,3.94523 -16.38295,7.2451 -20.92382,7.2451 -3.41689,0 -4.40103,-0.45318 -6.16479,-2.83879 -2.48235,-3.35755 -11.07418,-8.51538 -14.20586,-8.52804 -3.79468,-0.0154 -2.01908,3.02504 4.14701,7.10094 8.79538,5.8139 14.25922,10.61969 19.28523,16.96256 5.09854,6.43439 10.52744,15.60698 10.52744,17.78699 0,1.77216 -3.24596,4.78704 -7.58381,7.04394 -4.33777,2.25685 -26.60836,2.8092 -36.49711,0.90519 z"
     id="path1073" />
  <path
     style="fill:#1f2937;fill-opacity:1;stroke-width:0.947977"
     d="m 248.31856,348.50895 c -5.49779,-3.54366 -8.72297,-7.06638 -12.06543,-13.17853 l -2.72283,-4.9791 -3.48654,5.06229 c -4.31925,6.27137 -7.75658,9.57255 -9.1017,8.74122 -0.56369,-0.34838 -1.71214,-1.9624 -2.5521,-3.5867 -1.48835,-2.87816 -1.41062,-8.09298 0.20501,-13.75309 0.53368,-1.86968 0.26147,-2.13294 -2.20548,-2.13294 -2.80861,0 -4.1667,0.80844 -13.7175,8.16579 -9.18568,7.07608 -16.25322,9.7083 -17.48039,6.51036 -0.73037,-1.90332 1.18134,-9.45906 3.59335,-14.20217 2.6279,-5.16763 5.90297,-8.44938 10.50177,-10.52315 3.794,-1.71085 4.38578,-1.69521 32.36796,0.85572 20.89771,1.90509 29.39685,3.03565 31.85206,4.23698 3.65529,1.78853 7.8934,8.68848 11.06155,18.009 1.7081,5.02518 1.70638,5.15617 -0.0849,6.46602 -3.21837,2.35333 -6.15505,1.5585 -11.28047,-3.05312 l -4.87917,-4.39005 -0.6067,4.85803 c -1.35168,10.82317 -2.26379,11.49217 -9.39845,6.89344 z"
     id="path1112" />
  <path
     style="fill:#1f2937;fill-opacity:1;stroke-width:0.947977"
     d="m 898.68212,269.72813 c -21.27257,-4.67357 -48.07494,-15.82144 -58.67436,-24.40433 l -2.17874,-1.76424 3.17221,-3.14142 c 14.88665,-14.74209 37.67482,-21.46557 60.99731,-17.99678 3.95218,0.58781 7.41959,0.83494 7.70536,0.54917 0.28577,-0.28577 -0.003,-3.0063 -0.64069,-6.04563 -3.35637,-15.98556 0.78162,-39.00053 10.50497,-58.42718 6.91863,-13.823 15.6514,-23.38675 26.09677,-28.58006 4.93542,-2.45383 6.88213,-2.84664 15.78147,-3.18445 8.97916,-0.34084 10.64636,-0.14583 14.43573,1.68857 5.05836,2.44871 11.26091,9.05603 15.22772,16.22145 2.80521,5.06718 2.84393,5.33073 2.84393,19.35678 v 14.21965 l -4.03509,7.81208 c -2.2193,4.29665 -5.58996,10.2689 -7.49034,13.27168 -4.58084,7.23809 -17.37818,19.82373 -24.6215,24.21415 -7.41452,4.49421 -17.72464,8.38237 -22.74307,8.5769 -3.36784,0.13055 -4.49817,-0.39315 -8.18639,-3.79283 -5.05639,-4.66082 -9.17462,-6.94903 -12.50659,-6.94903 -4.80658,0 -2.51679,3.41369 6.2443,9.30915 7.8529,5.28435 14.93779,12.52529 20.73396,21.19067 3.12393,4.67031 5.67987,9.45564 5.67987,10.63406 0,2.24568 -2.63097,5.14384 -6.63584,7.30975 -3.99468,2.1604 -31.77401,2.11504 -41.71099,-0.0682 z"
     id="path1258" />
  <path
     style="fill:#1f2937;fill-opacity:1;stroke-width:0.947977"
     d="m 424.33113,441.56936 c -0.34936,-6.6747 -0.20563,-16.61501 0.3194,-22.08957 1.04781,-10.92565 1.14993,-11.1774 14.61323,-36.02312 6.97758,-12.87672 9.22518,-15.71556 15.7428,-19.88406 5.36439,-3.43092 11.30306,-4.41111 34.62352,-5.71467 9.90636,-0.55375 20.87991,-1.45054 24.38567,-1.99287 12.07642,-1.8682 12.06243,-1.7279 -1.16023,11.62855 -18.37822,18.56416 -26.31086,22.82602 -45.7631,24.5865 -6.37423,0.57688 -11.7988,1.25039 -12.0546,1.49669 -0.25581,0.2463 0.75259,3.72233 2.24088,7.72453 5.51708,14.83611 7.22153,21.96849 7.84073,32.81 0.33323,5.83441 0.30585,12.60868 -0.0608,15.05392 -0.62345,4.15742 -0.79622,4.37658 -2.66272,3.37766 -1.09781,-0.58753 -4.28755,-2.93472 -7.08832,-5.21597 -7.04698,-5.73985 -9.83195,-5.64285 -20.26664,0.70583 -4.38752,2.66946 -8.4492,5.0378 -9.02595,5.26299 -0.71382,0.27868 -1.25145,-3.46546 -1.68384,-11.72641 z"
     id="path1297" />
  <path
     style="fill:#1f2937;fill-opacity:1;stroke-width:0.947977"
     d=""
     id="path1336" />
  <path
     style="fill:#1f2937;fill-opacity:1;stroke-width:0.947977"
     d="m 449.3277,496.58774 c -5.2477,-5.03687 -9.20449,-9.48154 -8.79286,-9.87705 0.83333,-0.8007 10.83805,-2.76847 14.0757,-2.76847 1.50049,0 2.23051,0.72391 2.62892,2.60694 0.30337,1.43381 1.38095,6.33959 2.39464,10.90173 1.5062,6.77874 1.6047,8.2948 0.53897,8.2948 -0.71725,0 -5.59767,-4.12108 -10.84537,-9.15795 z"
     id="path1375" />
  <path
     style="fill:#1f2937;fill-opacity:1;stroke-width:0.947977"
     d="m 248.73479,348.22251 c -5.51837,-4.14661 -9.0847,-8.0148 -11.87092,-12.87567 -1.56899,-2.73729 -3.14135,-4.96588 -3.49413,-4.95244 -0.35277,0.0134 -2.03269,2.07661 -3.73315,4.58481 -1.70046,2.5082 -4.18959,5.58997 -5.5314,6.84839 l -2.43965,2.28802 -1.93185,-2.36994 c -1.70366,-2.09001 -1.86561,-3.23773 -1.37111,-9.71676 l 0.56074,-7.34682 h -2.939 c -2.11657,0 -5.4905,1.82229 -12.05703,6.51212 -10.83281,7.73683 -12.49828,8.65551 -15.69155,8.65551 -2.06369,0 -2.43226,-0.42557 -2.43226,-2.80837 0,-4.22829 3.61635,-13.04132 6.87374,-16.75128 6.02935,-6.86706 9.13429,-7.17965 40.99909,-4.12761 22.37222,2.14284 25.45567,2.56187 29.13216,3.95895 3.09808,1.17729 7.54302,7.60688 10.23748,14.80847 2.59985,6.94873 2.23912,9.10356 -1.58621,9.47523 -2.35862,0.22917 -4.07032,-0.59893 -8.21345,-3.97355 l -5.23388,-4.26306 -0.67312,4.92153 c -1.31486,9.61355 -3.21096,11.18528 -8.6045,7.13247 z"
     id="path1451" />
  <path
     style="fill:#1f2937;fill-opacity:1;stroke-width:0.947977"
     d="m 248.73479,348.22251 c -5.51837,-4.14661 -9.0847,-8.0148 -11.87092,-12.87567 -1.56899,-2.73729 -3.14135,-4.96588 -3.49413,-4.95244 -0.35277,0.0134 -2.03269,2.07661 -3.73315,4.58481 -1.70046,2.5082 -4.18959,5.58997 -5.5314,6.84839 l -2.43965,2.28802 -1.93185,-2.36994 c -1.70366,-2.09001 -1.86561,-3.23773 -1.37111,-9.71676 l 0.56074,-7.34682 h -2.68197 c -1.47508,0 -4.12791,0.99314 -5.89518,2.20699 -17.21987,11.82748 -19.12021,12.96064 -21.73539,12.96064 -2.47934,0 -2.8073,-0.32809 -2.8073,-2.80837 0,-4.22829 3.61635,-13.04132 6.87374,-16.75128 5.84939,-6.66209 9.32562,-7.09795 36.7332,-4.60569 20.48786,1.86302 30.22083,3.145 33.39805,4.39902 3.1083,1.22681 7.55382,7.67374 10.23748,14.84648 2.58984,6.92196 2.23504,9.10366 -1.54034,9.47181 -2.24951,0.21936 -4.06696,-0.60971 -7.79292,-3.55491 -2.67257,-2.11255 -5.05892,-3.84099 -5.30301,-3.84099 -0.24408,0 -0.74136,2.0263 -1.10507,4.50289 -1.35385,9.2189 -3.25446,10.70788 -8.56982,6.71382 z"
     id="path1490" />
  <path
     style="fill:#ffffff;stroke-width:0.947977;fill-opacity:1"
     d="m 425.30212,449.10407 c -0.916,-5.54178 -0.69986,-27.57611 0.33244,-33.89018 0.98603,-6.03103 6.0849,-17.35434 14.83429,-32.94319 6.13215,-10.92568 9.52753,-15.07243 14.92708,-18.23032 5.60557,-3.27837 9.91465,-4.00767 33.76949,-5.71541 11.72608,-0.83946 23.87969,-1.87798 27.00801,-2.30782 3.12833,-0.42983 5.82908,-0.65387 6.00167,-0.49786 0.88311,0.7983 -2.59798,4.82313 -12.16981,14.07071 -11.65456,11.25976 -19.63159,16.92729 -26.94083,19.14096 -3.78142,1.14524 -23.63872,4.20547 -27.28852,4.20547 -1.41236,0 -0.73974,3.33669 2.49924,12.39807 4.65981,13.03628 6.23351,21.82256 6.23351,34.80282 0,6.19173 -0.26755,11.52524 -0.59456,11.85226 -0.32702,0.32701 -2.50447,-0.77501 -4.8388,-2.44894 -7.86441,-5.63953 -9.25012,-6.35143 -12.37272,-6.35644 -3.06542,-0.005 -9.56677,2.84102 -16.52598,7.23418 -1.95213,1.23233 -3.71529,2.2406 -3.91813,2.2406 -0.20283,0 -0.63321,-1.59971 -0.95638,-3.55491 z"
     id="path930" />
  <path
     style="fill:#ffffff;fill-opacity:1;stroke-width:0.947977"
     d="m 449.73322,496.08859 c -6.17323,-5.97203 -8.61776,-8.92162 -7.77826,-9.38528 2.67831,-1.47926 13.07186,-2.48391 14.00946,-1.35417 0.50411,0.60742 1.56503,4.27201 2.3576,8.14354 0.79256,3.87152 1.66375,7.99896 1.93596,9.17208 0.27509,1.18556 0.0469,2.13295 -0.51366,2.13295 -0.55472,0 -5.05972,-3.9191 -10.0111,-8.70912 z"
     id="path1006" />
  <path
     style="fill:#ffffff;fill-opacity:1;stroke-width:0.947977"
     d=""
     id="path1045" />
  <path
     style="fill:#ffffff;fill-opacity:1;stroke-width:0.947977"
     d=""
     id="path1084" />
  <path
     style="fill:#ffffff;fill-opacity:1;stroke-width:0.947977"
     d="m 450.62752,495.94089 c -4.61796,-4.41203 -8.06166,-8.36255 -7.65267,-8.77894 1.38467,-1.40971 11.23415,-2.00827 12.48378,-0.75865 1.14512,1.14512 4.65284,16.47179 3.93425,17.19037 -0.20299,0.203 -4.14741,-3.24075 -8.76536,-7.65278 z"
     id="path1123" />
  <path
     style="fill:#ffffff;fill-opacity:1;stroke-width:0.947977"
     d="m 450.58697,495.96798 c -4.59487,-4.4425 -8.02,-8.41159 -7.6114,-8.82019 1.37118,-1.37118 11.23823,-1.98931 12.44774,-0.7798 1.23817,1.23817 4.76886,16.42639 3.99777,17.19748 -0.26388,0.26389 -4.23923,-3.15498 -8.83411,-7.59749 z"
     id="path1162" />
  <path
     style="fill:#ffffff;fill-opacity:1;stroke-width:0.947977"
     d="m 898.20813,269.10021 c -17.35523,-3.64227 -48.84476,-16.53313 -56.48501,-23.12323 l -3.23753,-2.79255 4.26589,-3.8274 c 6.122,-5.49273 15.4262,-10.85074 24.17342,-13.92075 7.29617,-2.56075 8.2618,-2.66052 25.45903,-2.63043 l 17.87523,0.0313 -0.61083,-4.29716 c -1.49948,-10.5489 -1.6466,-16.2811 -0.61653,-24.02162 3.82343,-28.73133 18.88955,-55.07906 36.42228,-63.69549 6.36089,-3.12604 7.41666,-3.3454 16.75186,-3.48063 7.80598,-0.11307 10.73216,0.22061 13.51502,1.54117 4.59139,2.17875 12.1378,10.46321 15.28616,16.78116 2.32612,4.6679 2.47269,5.78408 2.47269,18.82969 v 13.86765 l -5.29032,9.88264 c -6.5537,12.2427 -11.08111,18.18203 -20.25755,26.57508 -9.68255,8.85594 -25.7898,16.96074 -33.70733,16.96074 -1.11786,0 -5.12941,-2.34625 -8.91455,-5.21388 -5.22481,-3.95833 -7.66159,-5.21387 -10.11916,-5.21387 -6.05435,0 -4.52995,2.05676 10.03458,13.53895 6.62687,5.22442 14.95791,15.11985 18.8028,22.33362 l 2.98571,5.60175 -2.04764,2.60315 c -3.57626,4.54647 -6.77159,5.22477 -24.21332,5.14004 -10.0558,-0.0488 -18.35051,-0.58966 -22.5449,-1.46991 z"
     id="path1201" />
  <path
     style="fill:#ffffff;fill-opacity:1;stroke-width:0.403644"
     d="m 250.66301,349.6899 c -6.66726,-3.81739 -10.16505,-7.4112 -14.41164,-14.80722 -1.31951,-2.29812 -2.56046,-4.20534 -2.75765,-4.23826 -0.1972,-0.0329 -1.45849,1.51962 -2.80286,3.4501 -4.69845,6.7468 -8.26075,10.42634 -9.58651,9.90201 -0.28205,-0.11156 -1.13403,-1.23661 -1.89327,-2.50012 -1.17662,-1.9581 -1.40727,-2.76069 -1.56213,-5.43581 -0.11555,-1.99606 0.0563,-4.31327 0.47225,-6.36578 1.01603,-5.01434 1.03138,-4.96311 -1.48687,-4.96311 -2.88762,0 -4.79674,1.02079 -12.28428,6.56833 -7.0114,5.19477 -9.58162,6.82678 -12.90073,8.19159 -4.09323,1.68312 -6.17666,1.10836 -6.17666,-1.70398 0,-2.56301 1.6211,-7.93889 3.66739,-12.16175 2.48917,-5.13681 5.30623,-8.15024 9.65123,-10.32395 2.86222,-1.43192 3.05082,-1.46863 7.54427,-1.46863 4.96645,0 16.7164,0.93647 35.64729,2.8411 13.55778,1.36404 18.87729,2.16747 21.19132,3.20061 4.17804,1.86538 8.84951,9.67186 12.13986,20.28693 0.69711,2.24894 0.69546,2.33553 -0.0606,3.18395 -0.90164,1.01177 -2.98026,1.97165 -4.2696,1.97165 -1.62996,0 -4.23227,-1.59769 -8.24202,-5.06019 -2.17922,-1.88181 -4.08051,-3.28408 -4.2251,-3.11617 -0.14459,0.16792 -0.56766,2.54614 -0.94016,5.28494 -1.19211,8.76507 -2.19543,9.85062 -6.71351,7.26376 z"
     id="path4117" />
</svg>
