<?xml version="1.0" encoding="UTF-8" standalone="no"?>
<svg
   viewBox="0 0 820 820"
   version="1.1"
   id="svg74"
   sodipodi:docname="wikileaks.svg"
   inkscape:version="1.1.1 (3bf5ae0d25, 2021-09-20, custom)"
   xmlns:inkscape="http://www.inkscape.org/namespaces/inkscape"
   xmlns:sodipodi="http://sodipodi.sourceforge.net/DTD/sodipodi-0.dtd"
   xmlns="http://www.w3.org/2000/svg"
   xmlns:svg="http://www.w3.org/2000/svg">
  <sodipodi:namedview
     id="namedview76"
     pagecolor="#ffffff"
     bordercolor="#666666"
     borderopacity="1.0"
     inkscape:pageshadow="2"
     inkscape:pageopacity="0.0"
     inkscape:pagecheckerboard="0"
     showgrid="false"
     inkscape:zoom="1.054878"
     inkscape:cx="410"
     inkscape:cy="409.52601"
     inkscape:window-width="1916"
     inkscape:window-height="1041"
     inkscape:window-x="0"
     inkscape:window-y="18"
     inkscape:window-maximized="1"
     inkscape:current-layer="svg74" />
  <defs
     id="defs4">
    <style
       id="style2">.cls-1{fill:#6366F1;}.cls-2{fill:none;stroke:#FFF;stroke-linecap:round;stroke-linejoin:round;stroke-width:7px;}.cls-3{fill:#252631;}</style>
  </defs>
  <g
     id="CHARACTERS">
    <g
       id="Yelling">
      <g
         id="BG">
        <path
           class="cls-1"
           d="M349,221.38A996.92,996.92,0,0,0,240.69,186.1c27.56,17.27,147.32,93.62,183,120.45,13.48,2.56,28.28,8.49,37,14.22s3.19,18.41-.6,30.12-12.72,29-20,27-35.68-8.89-43.39-9.66c-4.5-.45-16.25-.79-29.7-1.08-3.52,7.87-8.41,17.82-12.83,27l.57,1.17c27.89,19.93,41.16,51.38,48.35,84.57l.73,2.92c.6-.67,1.2-1.35,1.78-2,4.79,12.6,9.59,25.34,13.49,38.33,1.87,6.25,2.8,10,2.29,13l1.18-.48c2.8-1.12,9.09,2.54,11.53,4.79,3.5,3.24,7.88,11.38,12.05,20.75,1.95-7.6,5.8-13.78,13.45-19.74-6.5-25.29,33.5-66.16,54.16-78.16.54.37,1.12.8,1.73,1.26l.08-.18c6.24-23.47,18.23-45,27.83-67.36,5.47-12.77,13-23.74,19.56-35.75,3.13-5.71,2.07-8.13-1.25-14.28-3.85-7.14-6.66-12.67-11.28-19.36-6.71-9.71-13.33-17.6-17.83-24.64s11.61-5.34,28.5-2.69c12.3,1.93,38.66,7.88,58.43,12.11a42.66,42.66,0,0,1-10.86-26.21c-.18-2.69,3.37-3.82,5.13-2.12,5.48,5.32,12.34,8.3,19.5,10.52-6.24-18.87-19.88-35.92-34.63-48.88-13.72-12.06-28.56-22.91-43-34.13l-46.61-36.34c-8.16-6.36-18.15-.47-16.71,9.73a204,204,0,0,1,1.07,46.87A705.34,705.34,0,0,0,317.57,122.11c-8.45-3.53-15.27,7.8-11.3,14.69A847.13,847.13,0,0,1,349,221.38Z"
           id="path6" />
        <path
           class="cls-1"
           d="M347.23,633.34c.33-4.37,2.12-19.29,8.44-20.92-7.43-9.18-12.72-14.42-11.75-27.59.46-6.32,2.57-20.27,9.89-25a14.92,14.92,0,0,1-4.66-8.57c-1.59-7.64-6.34-32.34-6.34-32.34a30.25,30.25,0,0,0,5-.56l-1.34-.44c.19-4.52-2.47-9.75-4.12-13.88-5.34-.31-15.58-2.72-22.44-5.81a35.77,35.77,0,0,1-4.78,9.69c-4.08,5.29-10.37,4.64-16.66,3.19-8.23-1.9-9.33-6.21-8-14.19.82-4.92,2.67-19,2.67-19l1.82-.17c-13.36-1.65-26.56-14.15-21.83-30.71-4.39-5-6.48-11.58-3.52-20.08a15.73,15.73,0,0,1-1-2.4c-2.35-7.29.61-16.76,4.51-21l2.14,1.49a18.54,18.54,0,0,1-4.16-7.47c-2.56-12.11,6.74-20.39,17.36-21.67a79.59,79.59,0,0,1,27.12,1.61l-.43,1.25,1-.43c1.48-4.73,2.89-9,3.94-12.11-2,0-3.83-.11-5.3-.17-12.79-.51-65.93,2.9-80.59,3.7-21.57,1.19-42.46,3.42-63.75,6.65-.36.06-.71.13-1.07.18a244.45,244.45,0,0,0-46.12,48.33c-4.79,6.64,1.8,14.58,8.63,15.05l122.88,8.39A581.66,581.66,0,0,0,173,535c-4.73,6.16,1.73,15.19,8.64,15q74.68-1.53,149.08-9a384.66,384.66,0,0,0-49.67,92.88c-2.89,7.82,5.53,13.51,12.3,12.3,17.83-3.18,35.8-6.41,53.71-10.08C347.12,635.14,347.16,634.24,347.23,633.34Z"
           id="path8" />
      </g>
      <g
         id="Character">
        <path
           class="cls-2"
           d="M341.09,484.89s-4.77-3.11-6.76-6.3c-2.78-4.45-5-8.21-6.21-13.36-1.87-7.92-1-22.44,3.63-29.2-9.67-2.3-32.14-10.32-28.6-23.47,3.15-11.7,23.91-9.42,32.67-7.3,4.14,1,13,5.25,18,11.3"
           id="path11" />
        <path
           class="cls-2"
           d="M315.6,377.5a79.59,79.59,0,0,0-27.12-1.61c-10.62,1.28-19.92,9.56-17.36,21.67,1.82,8.6,18.88,23.33,31.65,17.33"
           id="path13" />
        <path
           class="cls-2"
           d="M403.15,479.89c-7.19-33.19-20.46-64.64-48.35-84.57"
           id="path15" />
        <path
           class="cls-2"
           d="M273.14,403.54c-3.9,4.26-6.86,13.73-4.51,21,2.1,6.54,8.49,11.38,14.52,14,7.52,3.31,30.6,6.83,32-6"
           id="path17" />
        <path
           class="cls-2"
           d="M269.62,427c-6.14,17.6,9.37,27.05,22.19,30.93,7.84,2.37,32.69.72,35.79-8.57"
           id="path19" />
        <path
           class="cls-2"
           d="M273.14,447c-4.9,17.19,9.48,30,23.34,30.85a11.2,11.2,0,0,0,8.63-19.15"
           id="path21" />
        <path
           class="cls-2"
           d="M293.15,387.89c5.17,1,10.85,2.2,15.35,4.83,4.25,2.49,5.9,7.65,6.65,10.82"
           id="path23" />
        <path
           class="cls-2"
           d="M346.48,517.89c.19-4.52-2.47-9.75-4.12-13.88-6.82-.4-17-1.19-22.55-5.5"
           id="path25" />
        <path
           class="cls-2"
           d="M329.81,474.56c-.93,5.28-4.68,10-6.75,15-2.4,5.74-4.12,13.44-7.92,18.36-4.08,5.29-10.37,4.64-16.66,3.19-8.23-1.9-9.33-6.21-8-14.19.82-4.92,2.67-19,2.67-19"
           id="path27" />
        <path
           class="cls-2"
           d="M311.39,395.23a249.84,249.84,0,0,1,8.42-27.34"
           id="path29" />
        <path
           class="cls-2"
           d="M347.15,409.23c6.05-13.56,14.43-29.2,19.33-41.34"
           id="path31" />
        <path
           class="cls-2"
           d="M423.71,306.55c-36.85-27.69-163.23-108.13-185.38-121.93-15.2-9.47-43.41-25.7-51.59-30-7.65-4-23.35-4-30.59-.21-15.38,8.06-26.38,22.28-34.07,37.86a297.42,297.42,0,0,0-18,44.23c-6.18,19.76-10,36.1-11.55,57.1-1.12,14.93-2.48,29.57.46,44.43,2.66,13.37,6.06,28.09,12.84,40,6.06,10.67,12.47,10.46,23,8,14-3.19,27.26-7.51,41.68-9.7,21.29-3.23,42.18-5.46,63.75-6.65,14.66-.8,67.8-4.21,80.59-3.7,16.24.65,70.9,1.08,81.94,2.19,7.71.77,36.1,7.68,43.39,9.66s16.2-15.28,20-27,9.37-24.39.6-30.12-23.56-11.66-37-14.22c-1,14-9.56,45.34-19.23,62.68"
           id="path33" />
        <path
           class="cls-2"
           d="M189.81,171.39c4.61,13.41,9,37,9.67,51.11a212.37,212.37,0,0,1-3,47.89c-3.58,18.84-12.17,43.71-23.34,66.5S141.71,382.22,133.26,385"
           id="path35" />
        <path
           class="cls-2"
           d="M187.58,302.4s-61.5-26-63.77-31.84c-1.66-4.31,2-22.46,5.64-25.36,4.29-3.36,32.55.57,39.43,1.7,5.54.91,30.11,4.52,30.11,4.52"
           id="path37" />
        <path
           class="cls-2"
           d="M131.55,244.37c7.6,7.52,2.83,23-7.74,26.19"
           id="path39" />
        <path
           class="cls-2"
           d="M342.81,518.89c11.9-.3,23.5-8.11,33.37-14.33,10.8-6.81,21.42-14.23,29.48-23.78,4.79,12.6,9.59,25.34,13.49,38.33,4.53,15.13,3.55,15.74-10,25.15a114.49,114.49,0,0,1-47.26,18.66s-10.25.25-12.72-11.69C347.56,543.59,342.81,518.89,342.81,518.89Z"
           id="path41" />
        <path
           class="cls-2"
           d="M353.81,559.8c-7.32,4.76-9.43,18.71-9.89,25-1,13.17,4.32,18.41,11.75,27.59-6.32,1.63-8.11,16.55-8.44,20.92a129,129,0,0,0,2,34.09c1.57,8.05,7,23.8,14.21,31.13"
           id="path43" />
        <path
           class="cls-2"
           d="M422.62,531.59c2.8-1.12,9.09,2.54,11.53,4.79,9.31,8.6,24.83,51.85,26,60.63.58,4.42,0,22.72-8.72,13.92-4.58-4.61-7.31-20.18-7.28-26,.09-23,.33-35.66,15.5-47.5-6.5-25.29,33.5-66.16,54.16-78.16,4.67,3.25,12.42,10.33,19.67,14,11.15,5.64,27.55,8.93,40,9.66,14.49.86,41.42,2,67.55-1.56,2.05,6.13,1.62,17.88,3.71,23.91,1.63,4.68,14.84,28.83,18.94,39.32,4.69,12,33.22,71.55,36.12,78.49,5.78,13.85,12.74,26.15,19.25,39.45"
           id="path45" />
        <path
           class="cls-2"
           d="M537.15,526.56c-4.87,17-5,44.11-18.67,58.13-5.25,5.38-11.49,6-10.68,16,.74,9.12,3.23,26.25-8,31.82"
           id="path47" />
        <path
           class="cls-2"
           d="M549.15,617.23c10,0,20,.66,30.08.66,5.81,0,35.67-.66,35.67-.66"
           id="path49" />
        <line
           class="cls-2"
           x1="599.15"
           y1="609.23"
           x2="599.15"
           y2="625.89"
           id="line51" />
        <path
           class="cls-2"
           d="M587.15,607.23c2.57,11.16,1.2,22.73,0,34"
           id="path53" />
        <path
           class="cls-2"
           d="M508.48,475.23c-2.62,8.94-14.75,32.09-8.53,40.66,8.25,11.38,35.44-20.86,43.75-23.25.27,14,5.2,34.91,21.16,37.59,9.87,1.66,21.23-2.81,30-7a203.1,203.1,0,0,0,24.65-14.62"
           id="path55" />
        <path
           class="cls-2"
           d="M515.62,460.31c6.24-23.47,18.23-45,27.83-67.36,5.47-12.77,13-23.74,19.56-35.75,3.13-5.71,2.07-8.13-1.25-14.28-3.85-7.14-6.66-12.67-11.28-19.36-6.71-9.71-13.33-17.6-17.83-24.64s11.61-5.34,28.5-2.69,60.27,12.88,76.71,15.81c15.07,2.69,34.42,9,44,21.72,7.24,9.59,5.09,26.3,0,36.67,14.4,2.23,53.94,2.14,45.89,25.85-6.64,19.54-40.18,10.28-54.45,6.38-7.58,12.4-13.86,27.11-20.17,40.52-5.38,11.45-12.09,27.34-15,38.52"
           id="path57" />
        <path
           class="cls-2"
           d="M591.23,374.26c3.81,5.73,2,14.31-.39,19.93-2.16,5.09-7.73,15.42-14.44,15.29-7.1-.13-6.31-10.24-5.36-15.62,1.08-6.1,3.35-11.5,7.12-17.62S588.35,369.93,591.23,374.26Z"
           id="path59" />
        <line
           class="cls-2"
           x1="595.78"
           y1="332.39"
           x2="600.51"
           y2="341.4"
           id="line61" />
        <line
           class="cls-2"
           x1="621.75"
           y1="353.7"
           x2="634.16"
           y2="353.06"
           id="line63" />
        <path
           class="cls-2"
           d="M695.15,389.89c5.07-.23,8.9,1.18,14,1"
           id="path65" />
        <path
           class="cls-3"
           d="M696.7,333.19a21.63,21.63,0,0,0,2.4-18.07c-2.83-9-10.77-13.49-19.64-15.08-5.54-1-11.17-1.29-16.7-2.28-6.06-1.08-12-2.57-18-4.11-11-2.83-22.55-5.51-30.93-13.64-1.76-1.7-5.31-.57-5.13,2.12,2.48,36.48,42,46,70.58,57.32a20.85,20.85,0,0,0-6.58,10.43c-2.77,9.42.91,19.27-1.26,28.76-.54,2.38,2.11,4.93,4.41,3.39A110.66,110.66,0,0,0,690,371.38a168,168,0,0,1,18.63,2.72C712.11,360.18,709.42,341.07,696.7,333.19Z"
           id="path67" />
        <path
           class="cls-3"
           d="M664.29,419.39a2.85,2.85,0,0,0,3.81,1.4,2.52,2.52,0,0,0,1.85-.57c5.84-4.41,11.86-9,17.42-14.07-5.44-1.13-10.39-2.49-14.06-3.49C670.11,407.91,667.14,413.58,664.29,419.39Z"
           id="path69" />
      </g>
    </g>
  </g>
  <path
     style="fill:#ffffff;stroke-width:0.947977"
     d="m 672.73651,380.84971 c -0.24143,-0.39104 -0.47805,-6.51494 -0.52582,-13.60867 -0.0982,-14.58219 1.13332,-20.38746 5.23264,-24.66623 1.42552,-1.48793 2.35459,-2.9426 2.06458,-3.2326 -0.29,-0.29 -6.65774,-2.86855 -14.15054,-5.73011 -34.26314,-13.08538 -47.98615,-23.42472 -53.88501,-40.59866 -2.41906,-7.04284 -2.57947,-12.88627 -0.35375,-12.88627 0.86322,0 2.99855,1.09 4.74519,2.42223 8.46483,6.45644 29.52445,12.95112 53.80074,16.59187 18.09545,2.71381 24.12979,5.85063 28.1613,14.63908 2.16111,4.71109 2.23375,9.23551 0.24212,15.08064 l -1.53898,4.51665 3.86357,3.94702 c 6.12363,6.2559 8.06567,11.65725 8.52105,23.69946 0.23532,6.22314 0.009,10.65196 -0.5737,11.23482 -0.65088,0.65089 -3.77103,0.5783 -9.64458,-0.22436 -8.38178,-1.14542 -8.77071,-1.11577 -11.23222,0.85639 -5.16353,4.13701 -12.0365,8.66972 -13.14594,8.66972 -0.62793,0 -1.33922,-0.31994 -1.58065,-0.71098 z"
     id="path930" />
  <path
     style="fill:#ffffff;stroke-width:0.947977"
     d="m 665.47977,419.35527 c 0,-0.58986 1.79608,-4.44336 3.99129,-8.56332 4.42589,-8.3065 3.73863,-8.03787 13.23156,-5.17194 l 3.51795,1.06207 -8.67272,6.87283 c -8.10929,6.42634 -12.06808,8.32908 -12.06808,5.80036 z"
     id="path969" />
</svg>
